<?xml version="1.0" encoding="UTF-8"?>
<svg version="1.1" xmlns="http://www.w3.org/2000/svg" width="16" height="16">
<path d="M0 0 C5.28 0 10.56 0 16 0 C16 5.28 16 10.56 16 16 C10.72 16 5.44 16 0 16 C0 10.72 0 5.44 0 0 Z " fill="#90CEEE" transform="translate(0,0)"/>
<path d="M0 0 C5.28 0 10.56 0 16 0 C16 1.65 16 3.3 16 5 C15.34 4.34 14.68 3.68 14 3 C11.93125966 2.3574765 11.93125966 2.3574765 10 2 C10.165 2.94875 10.33 3.8975 10.5 4.875 C11 8 11 8 11 10 C11.66 10 12.32 10 13 10 C13 10.66 13 11.32 13 12 C11.35 12.33 9.7 12.66 8 13 C7.19032562 10.08517222 6.78154007 8.53886783 7.9375 5.6875 C8.288125 5.130625 8.63875 4.57375 9 4 C7.68 3.67 6.36 3.34 5 3 C5.33 2.67 5.66 2.34 6 2 C3.13275314 2.57344937 2.1385485 2.8614515 0 5 C0 3.35 0 1.7 0 0 Z " fill="#ABDCF3" transform="translate(0,0)"/>
<path d="M0 0 C1.65 0.33 3.3 0.66 5 1 C6.35384615 7.27692308 6.35384615 7.27692308 4.5625 10.9375 C3.7890625 11.9584375 3.7890625 11.9584375 3 13 C1.68 12.34 0.36 11.68 -1 11 C0.32 10.67 1.64 10.34 3 10 C3 9.34 3 8.68 3 8 C2.01 8.33 1.02 8.66 0 9 C0 6.03 0 3.06 0 0 Z " fill="#319CDF" transform="translate(10,2)"/>
<path d="M0 0 C-3 2 -3 2 -5 3 C-4.67 3.99 -4.34 4.98 -4 6 C-4.9375 9.1875 -4.9375 9.1875 -6 12 C-6.99 11.67 -7.98 11.34 -9 11 C-9.35897436 4.77777778 -9.35897436 4.77777778 -7.875 1.5625 C-5.24871143 -0.6260738 -3.31446363 -0.29461899 0 0 Z " fill="#3B9BD9" transform="translate(9,1)"/>
<path d="M0 0 C1.65 0 3.3 0 5 0 C6 4.75 6 4.75 6 7 C6.66 7 7.32 7 8 7 C8 7.66 8 8.32 8 9 C6.35 9.33 4.7 9.66 3 10 C2.19032562 7.08517222 1.78154007 5.53886783 2.9375 2.6875 C3.288125 2.130625 3.63875 1.57375 4 1 C2.68 0.67 1.36 0.34 0 0 Z " fill="#B7EDFB" transform="translate(5,3)"/>
<path d="M0 0 C2.475 0.495 2.475 0.495 5 1 C4.67 1.66 4.34 2.32 4 3 C3.34 2.67 2.68 2.34 2 2 C1.67 4.31 1.34 6.62 1 9 C-0.06546953 5.8035914 -0.07427838 3.34252724 0 0 Z " fill="#3D9BD3" transform="translate(10,2)"/>
<path d="M0 0 C1.67542976 0.28604898 3.34385343 0.61781233 5 1 C4.625 2.9375 4.625 2.9375 4 5 C3.01 5.495 3.01 5.495 2 6 C1.67 5.01 1.34 4.02 1 3 C0.34 2.34 -0.32 1.68 -1 1 C-0.67 0.67 -0.34 0.34 0 0 Z " fill="#6CB5DF" transform="translate(4,3)"/>
</svg>
